<svg width="51" height="51" viewBox="0 0 51 51" fill="none" xmlns="http://www.w3.org/2000/svg">
    <g clip-path="url(#clip0_260_7)">
        <path
            d="M50.3044 26.4417C50.3166 26.1237 50.3166 25.818 50.3166 25.5C50.3166 25.2799 50.3166 25.0719 50.3044 24.8518C50.2556 22.895 49.975 20.9993 49.5113 19.1892C49.3771 18.6511 49.2185 18.1252 49.0355 17.5993H31.2831V14.1871H47.6324C47.3518 13.6489 47.0589 13.1108 46.7539 12.5971C45.7046 10.8604 44.4479 9.2705 43.0326 7.8518C42.6056 7.43597 42.1663 7.02014 41.7149 6.62878L40.1044 12.5971H36.5905L38.7989 4.4518C38.3352 4.15827 37.8716 3.87698 37.3836 3.62014C35.4924 2.58058 33.4549 1.79784 31.2953 1.28417C30.7707 1.16187 30.246 1.0518 29.7092 0.953957V24.8396H26.3173V8.48777C26.3173 8.27986 26.0245 8.24317 25.9757 8.43885L24.841 12.5971H21.3271L24.5848 0.611511C24.0235 0.635972 23.4623 0.672662 22.9132 0.733813C20.4975 0.990648 18.1915 1.58993 16.0319 2.48273C15.4951 2.70288 14.9704 2.94748 14.4458 3.20432V24.8396H11.0295V5.27122C10.4805 5.66259 9.95583 6.07842 9.44339 6.50648C7.40583 8.24317 5.64889 10.2978 4.25798 12.6094C3.94075 13.123 3.64793 13.6612 3.37951 14.1993H9.45559V17.5993H1.952C1.78119 18.1252 1.62257 18.6511 1.47616 19.1892C1.00032 21.0115 0.731903 22.9072 0.683099 24.8518C0.683099 25.0719 0.670898 25.2799 0.670898 25.5C0.670898 25.818 0.670898 26.136 0.683099 26.4417H15.8855L14.9582 29.8417H1.04913C1.14674 30.3799 1.25654 30.9058 1.37855 31.4317C2.63525 36.605 5.51468 41.1424 9.44339 44.4813C9.85822 44.836 10.2731 45.1662 10.7123 45.4842C10.8221 45.5576 10.9197 45.6432 11.0295 45.7165V31.4194H14.4214V36.5561C14.4214 36.764 14.7142 36.8007 14.763 36.605L19.5214 19.177H23.0353L15.1656 48.1137C15.4463 48.2482 15.7269 48.3705 16.0197 48.4806C16.2271 48.5662 16.4345 48.6518 16.6419 48.7252C19.1431 49.6914 21.8518 50.254 24.6702 50.3518L24.7312 50.1317V50.3518C24.9874 50.364 25.2558 50.364 25.512 50.364C25.7805 50.364 26.0489 50.364 26.3173 50.3518V31.4194H29.7092V36.5561C29.7092 36.764 30.002 36.8007 30.0508 36.605L34.797 19.177H38.3108L29.9288 49.9849C30.3802 49.8993 30.8439 49.8137 31.2831 49.7036C31.4173 49.6669 31.5393 49.6424 31.6735 49.6058C40.507 47.3432 47.4494 40.323 49.6211 31.4317C49.7431 30.9058 49.8652 30.3799 49.9506 29.8417H37.0419L37.9692 26.4417H50.3044V26.4417ZM16.0075 17.5871V14.1871H24.719V17.5871H16.0075ZM21.7786 29.8417L22.7058 26.4417H31.1733L30.246 29.8417H21.7786Z"
            fill="#674EA7" />
        <path
            d="M37.9692 26.4417H50.3044C50.3166 26.1237 50.3166 25.818 50.3166 25.5C50.3166 25.2799 50.3166 25.0719 50.3044 24.8518H38.3841L39.9214 19.1892H49.4991C49.3649 18.6511 49.2063 18.1252 49.0233 17.5993H31.2831V14.1871H47.6324C47.3518 13.6489 47.0589 13.1108 46.7539 12.5971H41.7271L43.0082 7.8518C42.5812 7.43597 42.1419 7.02014 41.6905 6.62878L40.08 12.5971H36.5661L38.7745 4.4518C38.3108 4.15827 37.8472 3.87698 37.3592 3.62014L34.9312 12.5971H31.2709V1.28417C30.7463 1.16187 30.2216 1.0518 29.6848 0.953957V24.8396H26.2929V8.48777C26.2929 8.27986 26.0001 8.24317 25.9513 8.43885L24.8166 12.5971H24.719H21.3027L24.5604 0.611511C23.9991 0.635972 23.4379 0.672662 22.8888 0.733813L19.6678 12.5971H16.0075V2.49496C15.4707 2.71511 14.946 2.95971 14.4214 3.21655V24.8518H11.0295V5.27122C10.4805 5.66259 9.95583 6.07842 9.44339 6.50648V12.6094H4.25798C3.94075 13.123 3.64793 13.6612 3.37951 14.1993H9.45559V17.5993H1.952C1.78119 18.1252 1.62257 18.6511 1.47616 19.1892H9.44339V24.8518H0.683099C0.683099 25.0719 0.670898 25.2799 0.670898 25.5C0.670898 25.818 0.670898 26.136 0.683099 26.4417H15.8855L14.9582 29.8417H1.04913C1.14674 30.3799 1.25654 30.9058 1.37855 31.4317H9.44339V44.4813C9.85822 44.836 10.2731 45.1662 10.7123 45.4842C10.8221 45.5576 10.9197 45.6432 11.0295 45.7165V31.4194H14.4214V36.5561C14.4214 36.764 14.7142 36.8007 14.763 36.605L19.5214 19.177H23.0353L15.1656 48.1137C15.4463 48.2482 15.7269 48.3705 16.0197 48.4806C16.2271 48.5662 16.4345 48.6518 16.6419 48.7252L21.3515 31.4072H24.7312V50.1439V50.364C24.9874 50.3763 25.2558 50.3763 25.512 50.3763C25.7805 50.3763 26.0489 50.3763 26.3173 50.364V50.3518V31.4194H29.7092V36.5561C29.7092 36.764 30.002 36.8007 30.0508 36.605L34.797 19.177H38.3108L29.9288 49.9849C30.3802 49.8993 30.8439 49.8137 31.2831 49.7036C31.4173 49.6669 31.5393 49.6424 31.6735 49.6058L36.6149 31.4317H49.6211C49.7431 30.9058 49.8652 30.3799 49.9506 29.8417H37.0419L37.9692 26.4417ZM24.719 19.177V24.8396H23.1329L24.6702 19.177H24.719ZM16.3369 24.8518H16.0197V19.1892H17.8864L16.3369 24.8518ZM16.0075 17.5871V14.1871H24.719V17.5871H16.0075ZM21.7786 29.8417L22.7058 26.4417H31.1733L30.246 29.8417H21.7786ZM31.6003 24.8518H31.2831V19.1892H33.1498L31.6003 24.8518Z"
            fill="#923FEC" />
    </g>
    <defs>
        <clipPath id="clip0_260_7">
            <rect width="51" height="51" fill="white" />
        </clipPath>
    </defs>
</svg>