<svg width="520" height="246" viewBox="0 0 520 246" fill="none" xmlns="http://www.w3.org/2000/svg">
<g opacity="0.5">
<path d="M-11 136C-3.3787 136 3.57988 132.667 11.5325 126.333C22.7988 119 29.0947 117 45 117" stroke="url(#paint0_linear_260_8)" stroke-width="2"/>
<path d="M135 136C142.485 136 149.32 133.018 157.13 127.351C168.195 120.79 174.379 119 190 119" stroke="url(#paint1_linear_260_8)" stroke-width="2"/>
<path d="M276 136C283.077 136 289.538 133.368 296.923 128.368C307.385 122.579 313.231 121 328 121" stroke="url(#paint2_linear_260_8)" stroke-width="2"/>
<path d="M410 136C416.805 136 423.018 133.719 430.118 129.386C440.178 124.368 445.799 123 460 123" stroke="url(#paint3_linear_260_8)" stroke-width="2"/>
</g>
<g opacity="0.5">
<path d="M-42 121C-34.3787 121 -27.4201 124.333 -19.4675 130.667C-8.20119 138 -1.90533 140 14 140" stroke="url(#paint4_linear_260_8)" stroke-width="2"/>
<path d="M104 121C111.485 121 118.32 123.982 126.13 129.649C137.195 136.21 143.379 138 159 138" stroke="url(#paint5_linear_260_8)" stroke-width="2"/>
<path d="M245 121C252.077 121 258.538 123.632 265.923 128.632C276.385 134.421 282.231 136 297 136" stroke="url(#paint6_linear_260_8)" stroke-width="2"/>
<path d="M379 121C385.805 121 392.018 123.281 399.118 127.614C409.178 132.632 414.799 134 429 134" stroke="url(#paint7_linear_260_8)" stroke-width="2"/>
</g>
<g opacity="0.5">
<path d="M-10 120C-2.3787 120 4.57988 123.333 12.5325 129.667C23.7988 137 30.0947 139 46 139" stroke="url(#paint8_linear_260_8)" stroke-width="2"/>
<path d="M136 120C143.485 120 150.32 122.982 158.13 128.649C169.195 135.21 175.379 137 191 137" stroke="url(#paint9_linear_260_8)" stroke-width="2"/>
<path d="M277 120C284.077 120 290.538 122.632 297.923 127.632C308.385 133.421 314.231 135 329 135" stroke="url(#paint10_linear_260_8)" stroke-width="2"/>
<path d="M411 120C417.805 120 424.018 122.281 431.118 126.614C441.178 131.632 446.799 133 461 133" stroke="url(#paint11_linear_260_8)" stroke-width="2"/>
</g>
<path d="M-31 130C182.148 127.962 302.527 128.38 513.936 124.123C517.234 124.056 520 126.71 520 130.009C520 133.3 517.245 135.952 513.954 135.895C303.713 132.248 182.356 132.075 -31 130Z" fill="url(#paint12_linear_260_8)" fill-opacity="0.8"/>
<path d="M-31 130L517 127.016C518.654 127.007 520 128.346 520 130C520 131.654 518.654 132.993 517 132.984L-31 130Z" fill="url(#paint13_linear_260_8)"/>
<g opacity="0.5">
<path d="M135 129.426C135 235 124.32 235 118.75 235C106.213 235 118.75 11 86.25 11C76.9634 11 70 62.3772 70 125.754" stroke="url(#paint14_linear_260_8)"/>
<path d="M195 129.852C195 226 185.142 226 180 226C168.428 226 180 22 150 22C141.428 22 135 68.7899 135 126.508" stroke="url(#paint15_linear_260_8)"/>
<path d="M250 129.279C250 216 240.963 216 236.25 216C225.642 216 236.25 32 208.75 32C200.892 32 195 74.2027 195 126.262" stroke="url(#paint16_linear_260_8)"/>
<path d="M300 128.705C300 206 291.785 206 287.5 206C277.856 206 287.5 42 262.5 42C255.356 42 250 79.6154 250 126.016" stroke="url(#paint17_linear_260_8)"/>
<path d="M345 128.131C345 196 337.606 196 333.75 196C325.071 196 333.75 52 311.25 52C304.821 52 300 85.0282 300 125.771" stroke="url(#paint18_linear_260_8)"/>
<path d="M385 128.057C385 186.5 378.428 186.5 375 186.5C367.285 186.5 375 62.5 355 62.5C349.285 62.5 345 90.9409 345 126.025" stroke="url(#paint19_linear_260_8)"/>
<path d="M420 127.484C420 176.5 414.249 176.5 411.25 176.5C404.5 176.5 411.25 72.5 393.75 72.5C388.75 72.5 385 96.3537 385 125.779" stroke="url(#paint20_linear_260_8)"/>
<path d="M450 127.41C450 167 445.071 167 442.5 167C436.714 167 442.5 83 427.5 83C423.214 83 420 102.266 420 126.033" stroke="url(#paint21_linear_260_8)"/>
<path d="M475 127.136C475 157.3 470.892 157.3 468.75 157.3C463.928 157.3 468.75 93.3 456.25 93.3C452.678 93.3 450 107.979 450 126.087" stroke="url(#paint22_linear_260_8)"/>
<path d="M498 121.5C498 121.224 497.776 121 497.5 121C497.224 121 497 121.224 497 121.5H498ZM490 148C490.332 148 490.697 147.877 491.063 147.667C491.435 147.454 491.838 147.135 492.256 146.7C493.091 145.828 494.005 144.467 494.853 142.472C496.549 138.482 498 131.91 498 121.5H497C497 131.828 495.558 138.255 493.933 142.081C493.12 143.994 492.266 145.244 491.534 146.008C491.168 146.39 490.838 146.644 490.566 146.799C490.287 146.959 490.096 147 490 147V148ZM480 103C479.484 103 479.024 103.23 478.629 103.587C478.238 103.941 477.888 104.439 477.571 105.038C476.938 106.236 476.39 107.937 475.94 109.995C475.037 114.12 474.5 119.793 474.5 126.041H475.5C475.5 119.84 476.034 114.243 476.917 110.209C477.359 108.188 477.883 106.588 478.455 105.505C478.742 104.963 479.027 104.576 479.3 104.329C479.569 104.085 479.801 104 480 104V103ZM490 147C490 147 490 147 490.001 147C490.001 147 490.001 147 490 147C489.997 146.999 489.987 146.995 489.969 146.98C489.93 146.95 489.869 146.884 489.795 146.756C489.645 146.497 489.498 146.081 489.36 145.495C489.086 144.331 488.883 142.645 488.715 140.584C488.377 136.449 488.189 131.005 487.802 125.465C487.418 119.964 486.84 114.421 485.722 110.246C485.163 108.161 484.46 106.375 483.549 105.1C482.633 103.816 481.465 103 480 103V104C481.035 104 481.934 104.559 482.736 105.681C483.544 106.813 484.209 108.464 484.756 110.504C485.847 114.579 486.421 120.036 486.805 125.535C487.186 130.995 487.382 136.551 487.718 140.666C487.887 142.73 488.094 144.481 488.386 145.724C488.532 146.341 488.706 146.87 488.929 147.256C489.143 147.627 489.485 148 490 148V147Z" fill="url(#paint23_linear_260_8)"/>
<path d="M70 130C70 245 58.499 245 52.5 245C38.999 245 52.5 1 17.5 1C7.49902 1 0 56.9644 0 126" stroke="url(#paint24_linear_260_8)"/>
</g>
<g opacity="0.5">
<path d="M45 117C87.6667 117 88.3333 136 135 136" stroke="url(#paint25_linear_260_8)" stroke-width="2"/>
<path d="M190 119C230.77 119 231.407 136 276 136" stroke="url(#paint26_linear_260_8)" stroke-width="2"/>
<path d="M328 121C366.874 121 367.481 136 410 136" stroke="url(#paint27_linear_260_8)" stroke-width="2"/>
<path d="M502.091 133.913C502.595 134.138 503.187 133.913 503.413 133.409C503.638 132.905 503.413 132.313 502.909 132.087L502.091 133.913ZM502.909 132.087C495.664 128.84 489.845 126.307 483.381 124.596C476.903 122.881 469.814 122 460 122V124C469.686 124 476.597 124.869 482.869 126.529C489.155 128.193 494.836 130.66 502.091 133.913L502.909 132.087Z" fill="url(#paint28_linear_260_8)"/>
</g>
<g opacity="0.5">
<path d="M14 140C56.6667 140 57.3333 121 104 121" stroke="url(#paint29_linear_260_8)" stroke-width="2"/>
<path d="M159 138C199.77 138 200.407 121 245 121" stroke="url(#paint30_linear_260_8)" stroke-width="2"/>
<path d="M297 136C335.874 136 336.481 121 379 121" stroke="url(#paint31_linear_260_8)" stroke-width="2"/>
<path d="M493.519 121.5C494.071 121.511 494.51 121.967 494.5 122.519C494.489 123.071 494.033 123.51 493.481 123.5L493.519 121.5ZM493.481 123.5C480.638 123.253 469.51 126.091 459.083 129.025C448.703 131.947 438.921 135 429 135V133C438.579 133 448.047 130.053 458.542 127.1C468.99 124.159 480.362 121.247 493.519 121.5L493.481 123.5Z" fill="url(#paint32_linear_260_8)"/>
</g>
<g opacity="0.5">
<path d="M46 139C88.6667 139 89.3333 120 136 120" stroke="url(#paint33_linear_260_8)" stroke-width="2"/>
<path d="M191 137C231.77 137 232.407 120 277 120" stroke="url(#paint34_linear_260_8)" stroke-width="2"/>
<path d="M329 135C367.874 135 368.481 120 411 120" stroke="url(#paint35_linear_260_8)" stroke-width="2"/>
<path d="M503.091 122.087C503.595 121.862 504.187 122.087 504.413 122.591C504.638 123.095 504.413 123.687 503.909 123.913L503.091 122.087ZM503.909 123.913C496.664 127.16 490.845 129.693 484.381 131.404C477.903 133.119 470.814 134 461 134V132C470.686 132 477.597 131.131 483.869 129.471C490.155 127.807 495.836 125.34 503.091 122.087L503.909 123.913Z" fill="url(#paint36_linear_260_8)"/>
</g>
<defs>
<linearGradient id="paint0_linear_260_8" x1="11.5324" y1="166" x2="157.331" y2="166" gradientUnits="userSpaceOnUse">
<stop stop-color="white" stop-opacity="0.2"/>
<stop offset="0.5" stop-color="white" stop-opacity="0.8"/>
<stop offset="1" stop-color="white" stop-opacity="0.2"/>
</linearGradient>
<linearGradient id="paint1_linear_260_8" x1="135" y1="162.842" x2="190" y2="162.842" gradientUnits="userSpaceOnUse">
<stop stop-color="white" stop-opacity="0.5"/>
<stop offset="0.5" stop-color="white" stop-opacity="0.2"/>
<stop offset="1" stop-color="white" stop-opacity="0.5"/>
</linearGradient>
<linearGradient id="paint2_linear_260_8" x1="276" y1="159.684" x2="328" y2="159.684" gradientUnits="userSpaceOnUse">
<stop stop-color="white" stop-opacity="0.5"/>
<stop offset="0.5" stop-color="white" stop-opacity="0.2"/>
<stop offset="1" stop-color="white" stop-opacity="0.5"/>
</linearGradient>
<linearGradient id="paint3_linear_260_8" x1="410" y1="156.526" x2="460" y2="156.526" gradientUnits="userSpaceOnUse">
<stop stop-color="white" stop-opacity="0.5"/>
<stop offset="0.5" stop-color="white" stop-opacity="0.2"/>
<stop offset="1" stop-color="white" stop-opacity="0.5"/>
</linearGradient>
<linearGradient id="paint4_linear_260_8" x1="-19.4676" y1="91" x2="126.331" y2="91" gradientUnits="userSpaceOnUse">
<stop stop-color="white" stop-opacity="0.2"/>
<stop offset="0.5" stop-color="white" stop-opacity="0.8"/>
<stop offset="1" stop-color="white" stop-opacity="0.2"/>
</linearGradient>
<linearGradient id="paint5_linear_260_8" x1="104" y1="94.1579" x2="159" y2="94.1579" gradientUnits="userSpaceOnUse">
<stop stop-color="white" stop-opacity="0.5"/>
<stop offset="0.5" stop-color="white" stop-opacity="0.2"/>
<stop offset="1" stop-color="white" stop-opacity="0.5"/>
</linearGradient>
<linearGradient id="paint6_linear_260_8" x1="245" y1="97.3158" x2="297" y2="97.3158" gradientUnits="userSpaceOnUse">
<stop stop-color="white" stop-opacity="0.5"/>
<stop offset="0.5" stop-color="white" stop-opacity="0.2"/>
<stop offset="1" stop-color="white" stop-opacity="0.5"/>
</linearGradient>
<linearGradient id="paint7_linear_260_8" x1="379" y1="100.474" x2="429" y2="100.474" gradientUnits="userSpaceOnUse">
<stop stop-color="white" stop-opacity="0.5"/>
<stop offset="0.5" stop-color="white" stop-opacity="0.2"/>
<stop offset="1" stop-color="white" stop-opacity="0.5"/>
</linearGradient>
<linearGradient id="paint8_linear_260_8" x1="12.5324" y1="90" x2="158.331" y2="90" gradientUnits="userSpaceOnUse">
<stop stop-color="white" stop-opacity="0.2"/>
<stop offset="0.5" stop-color="white" stop-opacity="0.8"/>
<stop offset="1" stop-color="white" stop-opacity="0.2"/>
</linearGradient>
<linearGradient id="paint9_linear_260_8" x1="136" y1="93.1579" x2="191" y2="93.1579" gradientUnits="userSpaceOnUse">
<stop stop-color="white" stop-opacity="0.5"/>
<stop offset="0.5" stop-color="white" stop-opacity="0.2"/>
<stop offset="1" stop-color="white" stop-opacity="0.5"/>
</linearGradient>
<linearGradient id="paint10_linear_260_8" x1="277" y1="96.3158" x2="329" y2="96.3158" gradientUnits="userSpaceOnUse">
<stop stop-color="white" stop-opacity="0.5"/>
<stop offset="0.5" stop-color="white" stop-opacity="0.2"/>
<stop offset="1" stop-color="white" stop-opacity="0.5"/>
</linearGradient>
<linearGradient id="paint11_linear_260_8" x1="411" y1="99.4737" x2="461" y2="99.4737" gradientUnits="userSpaceOnUse">
<stop stop-color="white" stop-opacity="0.5"/>
<stop offset="0.5" stop-color="white" stop-opacity="0.2"/>
<stop offset="1" stop-color="white" stop-opacity="0.5"/>
</linearGradient>
<linearGradient id="paint12_linear_260_8" x1="520" y1="138.993" x2="-31" y2="138.993" gradientUnits="userSpaceOnUse">
<stop stop-color="#FF9900"/>
<stop offset="0.223958" stop-color="#FBA31E" stop-opacity="0.5"/>
<stop offset="1" stop-color="white" stop-opacity="0"/>
</linearGradient>
<linearGradient id="paint13_linear_260_8" x1="520" y1="134.496" x2="-31" y2="134.496" gradientUnits="userSpaceOnUse">
<stop stop-color="white"/>
<stop offset="0.223958" stop-color="white" stop-opacity="0.5"/>
<stop offset="1" stop-color="white" stop-opacity="0"/>
</linearGradient>
<linearGradient id="paint14_linear_260_8" x1="70.0009" y1="11" x2="135.001" y2="11" gradientUnits="userSpaceOnUse">
<stop stop-color="white" stop-opacity="0.2"/>
<stop offset="0.473958" stop-color="white" stop-opacity="0.8"/>
<stop offset="1" stop-color="white" stop-opacity="0.2"/>
</linearGradient>
<linearGradient id="paint15_linear_260_8" x1="135.001" y1="22" x2="195.001" y2="22" gradientUnits="userSpaceOnUse">
<stop stop-color="white" stop-opacity="0.2"/>
<stop offset="0.473958" stop-color="white" stop-opacity="0.8"/>
<stop offset="1" stop-color="white" stop-opacity="0.2"/>
</linearGradient>
<linearGradient id="paint16_linear_260_8" x1="195.001" y1="32" x2="250.001" y2="32" gradientUnits="userSpaceOnUse">
<stop stop-color="white" stop-opacity="0.2"/>
<stop offset="0.473958" stop-color="white" stop-opacity="0.8"/>
<stop offset="1" stop-color="white" stop-opacity="0.2"/>
</linearGradient>
<linearGradient id="paint17_linear_260_8" x1="250.001" y1="42" x2="300.001" y2="42" gradientUnits="userSpaceOnUse">
<stop stop-color="white" stop-opacity="0.2"/>
<stop offset="0.473958" stop-color="white" stop-opacity="0.8"/>
<stop offset="1" stop-color="white" stop-opacity="0.2"/>
</linearGradient>
<linearGradient id="paint18_linear_260_8" x1="300.001" y1="52" x2="345.001" y2="52" gradientUnits="userSpaceOnUse">
<stop stop-color="white" stop-opacity="0.2"/>
<stop offset="0.473958" stop-color="white" stop-opacity="0.8"/>
<stop offset="1" stop-color="white" stop-opacity="0.2"/>
</linearGradient>
<linearGradient id="paint19_linear_260_8" x1="345.001" y1="62.5" x2="385.001" y2="62.5" gradientUnits="userSpaceOnUse">
<stop stop-color="white" stop-opacity="0.2"/>
<stop offset="0.473958" stop-color="white" stop-opacity="0.8"/>
<stop offset="1" stop-color="white" stop-opacity="0.2"/>
</linearGradient>
<linearGradient id="paint20_linear_260_8" x1="385" y1="72.5" x2="420" y2="72.5" gradientUnits="userSpaceOnUse">
<stop stop-color="white" stop-opacity="0.2"/>
<stop offset="0.473958" stop-color="white" stop-opacity="0.8"/>
<stop offset="1" stop-color="white" stop-opacity="0.2"/>
</linearGradient>
<linearGradient id="paint21_linear_260_8" x1="420" y1="83" x2="450" y2="83" gradientUnits="userSpaceOnUse">
<stop stop-color="white" stop-opacity="0.2"/>
<stop offset="0.473958" stop-color="white" stop-opacity="0.8"/>
<stop offset="1" stop-color="white" stop-opacity="0.2"/>
</linearGradient>
<linearGradient id="paint22_linear_260_8" x1="450" y1="93.3" x2="475" y2="93.3" gradientUnits="userSpaceOnUse">
<stop stop-color="white" stop-opacity="0.2"/>
<stop offset="0.473958" stop-color="white" stop-opacity="0.8"/>
<stop offset="1" stop-color="white" stop-opacity="0.2"/>
</linearGradient>
<linearGradient id="paint23_linear_260_8" x1="475" y1="103.5" x2="495" y2="103.5" gradientUnits="userSpaceOnUse">
<stop stop-color="white" stop-opacity="0.2"/>
<stop offset="0.473958" stop-color="white" stop-opacity="0.8"/>
<stop offset="1" stop-color="white" stop-opacity="0.2"/>
</linearGradient>
<linearGradient id="paint24_linear_260_8" x1="0.000976112" y1="1" x2="70.0009" y2="1" gradientUnits="userSpaceOnUse">
<stop stop-color="white" stop-opacity="0.2"/>
<stop offset="0.473958" stop-color="white" stop-opacity="0.8"/>
<stop offset="1" stop-color="white" stop-opacity="0.2"/>
</linearGradient>
<linearGradient id="paint25_linear_260_8" x1="45" y1="136" x2="135" y2="136" gradientUnits="userSpaceOnUse">
<stop stop-color="white" stop-opacity="0.5"/>
<stop offset="0.5" stop-color="white" stop-opacity="0.8"/>
<stop offset="1" stop-color="white" stop-opacity="0.5"/>
</linearGradient>
<linearGradient id="paint26_linear_260_8" x1="190" y1="136" x2="276" y2="136" gradientUnits="userSpaceOnUse">
<stop stop-color="white" stop-opacity="0.5"/>
<stop offset="0.5" stop-color="white" stop-opacity="0.8"/>
<stop offset="1" stop-color="white" stop-opacity="0.5"/>
</linearGradient>
<linearGradient id="paint27_linear_260_8" x1="328" y1="136" x2="410" y2="136" gradientUnits="userSpaceOnUse">
<stop stop-color="white" stop-opacity="0.5"/>
<stop offset="0.5" stop-color="white" stop-opacity="0.8"/>
<stop offset="1" stop-color="white" stop-opacity="0.5"/>
</linearGradient>
<linearGradient id="paint28_linear_260_8" x1="460" y1="138" x2="503" y2="138" gradientUnits="userSpaceOnUse">
<stop stop-color="white" stop-opacity="0.5"/>
<stop offset="0.5" stop-color="white" stop-opacity="0.8"/>
<stop offset="1" stop-color="white" stop-opacity="0.5"/>
</linearGradient>
<linearGradient id="paint29_linear_260_8" x1="14" y1="121" x2="104" y2="121" gradientUnits="userSpaceOnUse">
<stop stop-color="white" stop-opacity="0.5"/>
<stop offset="0.5" stop-color="white" stop-opacity="0.8"/>
<stop offset="1" stop-color="white" stop-opacity="0.5"/>
</linearGradient>
<linearGradient id="paint30_linear_260_8" x1="159" y1="121" x2="245" y2="121" gradientUnits="userSpaceOnUse">
<stop stop-color="white" stop-opacity="0.5"/>
<stop offset="0.5" stop-color="white" stop-opacity="0.8"/>
<stop offset="1" stop-color="white" stop-opacity="0.5"/>
</linearGradient>
<linearGradient id="paint31_linear_260_8" x1="297" y1="121" x2="379" y2="121" gradientUnits="userSpaceOnUse">
<stop stop-color="white" stop-opacity="0.5"/>
<stop offset="0.5" stop-color="white" stop-opacity="0.8"/>
<stop offset="1" stop-color="white" stop-opacity="0.5"/>
</linearGradient>
<linearGradient id="paint32_linear_260_8" x1="429" y1="119" x2="472" y2="119" gradientUnits="userSpaceOnUse">
<stop stop-color="white" stop-opacity="0.5"/>
<stop offset="0.5" stop-color="white" stop-opacity="0.8"/>
<stop offset="1" stop-color="white" stop-opacity="0.5"/>
</linearGradient>
<linearGradient id="paint33_linear_260_8" x1="46" y1="120" x2="136" y2="120" gradientUnits="userSpaceOnUse">
<stop stop-color="white" stop-opacity="0.5"/>
<stop offset="0.5" stop-color="white" stop-opacity="0.8"/>
<stop offset="1" stop-color="white" stop-opacity="0.5"/>
</linearGradient>
<linearGradient id="paint34_linear_260_8" x1="191" y1="120" x2="277" y2="120" gradientUnits="userSpaceOnUse">
<stop stop-color="white" stop-opacity="0.5"/>
<stop offset="0.5" stop-color="white" stop-opacity="0.8"/>
<stop offset="1" stop-color="white" stop-opacity="0.5"/>
</linearGradient>
<linearGradient id="paint35_linear_260_8" x1="329" y1="120" x2="411" y2="120" gradientUnits="userSpaceOnUse">
<stop stop-color="white" stop-opacity="0.5"/>
<stop offset="0.5" stop-color="white" stop-opacity="0.8"/>
<stop offset="1" stop-color="white" stop-opacity="0.5"/>
</linearGradient>
<linearGradient id="paint36_linear_260_8" x1="461" y1="118" x2="504" y2="118" gradientUnits="userSpaceOnUse">
<stop stop-color="white" stop-opacity="0.5"/>
<stop offset="0.5" stop-color="white" stop-opacity="0.8"/>
<stop offset="1" stop-color="white" stop-opacity="0.5"/>
</linearGradient>
</defs>
</svg>
